<svg className="developer" width="747" height="268" viewBox="0 0 747 268" fill="none" xmlns="http://www.w3.org/2000/svg">
    <g filter="url(#filter0_f_27_176)">
        <path id="developer-d" d="M11 74.2798C23.1667 57.9465 58.2 22.9798 101 13.7798C143.8 4.57979 162.167 33.2798 166 48.7798C169.333 61.1131 170.862 95.7288 145.5 132.28C111.5 181.28 101 189 86 202.78C81.0462 207.331 50.5 232.78 29 240.78C11.8 247.18 16.5 229.113 21 219.28M50.5 95.7798C46.8333 113.78 38.9 157.18 36.5 186.78M160.5 160.78C158.5 161.946 155.1 165.28 157.5 169.28C160.5 174.28 169.5 167.78 172.5 165.78C175.5 163.78 191.316 148.802 194.5 140.78C196 137 199.5 129.78 194.5 121.28C189.5 112.78 177.758 121.848 177 122.5C175 124.22 168.5 130.78 166 145.78C164 157.78 171.333 166.833 176.5 171C179.5 172.333 187.6 177.18 198 176.78C208.4 176.38 219.5 168.833 223.5 164.5C228.5 158 233.6 153.18 234 140.78C234.5 125.28 229 130.5 227.5 132.5C226 134.5 225.136 137.5 225 138.28C223.833 144.946 221.4 160.48 229 169.28C236.6 178.08 249.167 168.946 254.5 163.28C260 158.78 272.1 147.48 276.5 138.28C280.9 129.08 278.5 115 276.5 116.28C274.333 117.446 272.5 124.5 272.5 126.5C272.5 129 272 144.28 283 156.78C291.8 166.78 299 162.5 303 159.5C315.5 148.5 318.6 145.58 323 134.78C324.744 130.5 326.607 126.5 323 116.28C320.6 109.48 309.5 116.28 306 123.5C303 128.833 300.8 144.48 306 163.28C311.2 182.08 333.5 169.446 344 160.78C351.667 153.78 368.9 136.58 376.5 123.78C384.1 110.98 379.667 68.4465 376.5 48.7798C375.5 44 371 59.6798 371 77.2798C371 99.2798 374.5 142.78 391 163.28C404.2 179.68 421 148.28 437.5 130C440.683 126.474 446.9 118.5 434.5 118.5C419 118.5 406.5 135.5 406.5 150.78C406.5 156.801 409 175.28 430.5 169.28C452 163.28 458.5 155.78 462.5 148.28C466.5 140.78 466.5 134.78 462.5 129.28C458.5 123.78 442.271 122.591 443.5 129.28C444 132 447.5 135.5 451.5 137.5C454 138.75 469.5 149.28 489 129.28C508.5 109.28 480 121.78 496 181.28C512 240.78 508 216.28 513.5 247.28C519 278.28 493.832 221.411 491 211.5C490 208 481.5 180.5 486.5 145.78C494.677 88.9966 531.667 83.2798 551.5 87.7798C556 88.9465 564.4 94.2798 562 106.28C559 121.28 530 141.28 498 152.28C466 163.28 556.624 152.313 562 150.78C573.5 147.5 601.5 144.78 618.5 116.28C635.5 87.7798 596.379 87 590.5 105.5C589 110.22 586.34 120.232 595.5 126C609 134.5 641 128.613 657.5 123.78C657.5 112.113 660.1 85.8798 670.5 74.2798C683.5 59.7798 696.475 59.5 701.5 59.5C709.5 59.5 723 58.7798 736 77.2798" stroke="url(#paint0_linear_27_176)" stroke-opacity="0.38" stroke-width="15" />
    </g>
    <path id="developer-eveloper" d="M11 74.2798C23.1667 57.9465 58.2 22.9798 101 13.7798C143.8 4.57979 162.167 33.2798 166 48.7798C169.333 61.1131 170.862 95.7288 145.5 132.28C111.5 181.28 101 189 86 202.78C81.0462 207.331 50.5 232.78 29 240.78C11.8 247.18 16.5 229.113 21 219.28M50.5 95.7798C46.8333 113.78 38.9 157.18 36.5 186.78M160.5 160.78C158.5 161.946 155.1 165.28 157.5 169.28C160.5 174.28 169.5 167.78 172.5 165.78C175.5 163.78 191.316 148.802 194.5 140.78C196 137 199.5 129.78 194.5 121.28C189.5 112.78 177.758 121.848 177 122.5C175 124.22 168.5 130.78 166 145.78C164 157.78 171.333 166.833 176.5 171C179.5 172.333 187.6 177.18 198 176.78C208.4 176.38 219.5 168.833 223.5 164.5C228.5 158 233.6 153.18 234 140.78C234.5 125.28 229 130.5 227.5 132.5C226 134.5 225.136 137.5 225 138.28C223.833 144.946 221.4 160.48 229 169.28C236.6 178.08 249.167 168.946 254.5 163.28C260 158.78 272.1 147.48 276.5 138.28C280.9 129.08 278.5 115 276.5 116.28C274.333 117.446 272.5 124.5 272.5 126.5C272.5 129 272 144.28 283 156.78C291.8 166.78 299 162.5 303 159.5C315.5 148.5 318.6 145.58 323 134.78C324.744 130.5 326.607 126.5 323 116.28C320.6 109.48 309.5 116.28 306 123.5C303 128.833 300.8 144.48 306 163.28C311.2 182.08 333.5 169.446 344 160.78C351.667 153.78 368.9 136.58 376.5 123.78C384.1 110.98 379.667 68.4465 376.5 48.7798C375.5 44 371 59.6798 371 77.2798C371 99.2798 374.5 142.78 391 163.28C404.2 179.68 421 148.28 437.5 130C440.683 126.474 446.9 118.5 434.5 118.5C419 118.5 406.5 135.5 406.5 150.78C406.5 156.801 409 175.28 430.5 169.28C452 163.28 458.5 155.78 462.5 148.28C466.5 140.78 466.5 134.78 462.5 129.28C458.5 123.78 442.271 122.591 443.5 129.28C444 132 447.5 135.5 451.5 137.5C454 138.75 469.5 149.28 489 129.28C508.5 109.28 480 121.78 496 181.28C512 240.78 508 216.28 513.5 247.28C519 278.28 493.832 221.411 491 211.5C490 208 481.5 180.5 486.5 145.78C494.677 88.9966 531.667 83.2798 551.5 87.7798C556 88.9465 564.4 94.2798 562 106.28C559 121.28 530 141.28 498 152.28C466 163.28 556.624 152.313 562 150.78C573.5 147.5 601.5 144.78 618.5 116.28C635.5 87.7798 596.379 87 590.5 105.5C589 110.22 586.34 120.232 595.5 126C609 134.5 641 128.613 657.5 123.78C657.5 112.113 660.1 85.8798 670.5 74.2798C683.5 59.7798 696.475 59.5 701.5 59.5C709.5 59.5 723 58.7798 736 77.2798" stroke="url(#paint1_linear_27_176)" stroke-width="4" stroke-linecap="round" stroke-linejoin="round" />
    <defs>
        <filter id="filter0_f_27_176" x="0.984375" y="0.501129" width="745.152" height="267.455" filterUnits="userSpaceOnUse" color-interpolation-filters="sRGB">
            <feFlood flood-opacity="0" result="BackgroundImageFix" />
            <feBlend mode="normal" in="SourceGraphic" in2="BackgroundImageFix" result="shape" />
            <feGaussianBlur stdDeviation="2" result="effect1_foregroundBlur_27_176" />
        </filter>
        <linearGradient id="paint0_linear_27_176" x1="745" y1="138.5" x2="16.5" y2="131" gradientUnits="userSpaceOnUse">
            <stop stop-color="#FFD28D" />
            <stop offset="1" stop-color="#FF9900" />
        </linearGradient>
        <linearGradient id="paint1_linear_27_176" x1="740" y1="143" x2="-55.5" y2="149.5" gradientUnits="userSpaceOnUse">
            <stop stop-color="#FFD59A" />
            <stop offset="1" stop-color="#FF9900" stop-opacity="0.66" />
        </linearGradient>
    </defs>
</svg>
    